<?xml version="1.0" standalone="no"?><!DOCTYPE svg PUBLIC "-//W3C//DTD SVG 1.1//EN" "http://www.w3.org/Graphics/SVG/1.1/DTD/svg11.dtd"><svg t="1539615611068" class="icon" style="" viewBox="0 0 1024 1024" version="1.1" xmlns="http://www.w3.org/2000/svg" p-id="1372" xmlns:xlink="http://www.w3.org/1999/xlink" width="200" height="200"><defs><style type="text/css"></style></defs><path d="M870.4 1024H153.6a51.2 51.2 0 0 1-51.2-51.2V716.8a51.2 51.2 0 0 1 102.4 0v204.8h614.4v-204.8a51.2 51.2 0 0 1 102.4 0v256a51.2 51.2 0 0 1-51.2 51.2z m153.6-665.6a51.2 51.2 0 0 0-8.6016-28.3904l-204.8-307.2A51.2 51.2 0 0 0 768 0H256a51.2 51.2 0 0 0-42.5984 22.8096l-204.8 307.2A51.2 51.2 0 0 0 0 358.4v76.8a128.1536 128.1536 0 0 0 128 128c98.4064 0 128-102.4 128-102.4a131.072 131.072 0 0 0 128 102.4c98.4064 0 128-102.4 128-102.4a131.072 131.072 0 0 0 128 102.4c98.4064 0 128-102.4 128-102.4a131.072 131.072 0 0 0 128 102.4 128.1536 128.1536 0 0 0 128-128v-76.8z" fill="#54626C" p-id="1373"></path></svg>