<?xml version="1.0" standalone="no"?><!DOCTYPE svg PUBLIC "-//W3C//DTD SVG 1.1//EN" "http://www.w3.org/Graphics/SVG/1.1/DTD/svg11.dtd"><svg t="1539616252455" class="icon" style="" viewBox="0 0 1024 1024" version="1.1" xmlns="http://www.w3.org/2000/svg" p-id="6495" xmlns:xlink="http://www.w3.org/1999/xlink" width="200" height="200"><defs><style type="text/css"></style></defs><path d="M993.615469 209.212977l-460.794471-204.797542a51.199386 51.199386 0 0 0-41.5995 0l-460.794471 204.797542a51.199386 51.199386 0 0 0 0 93.592477l460.794471 204.797543a51.378583 51.378583 0 0 0 41.5995 0l460.794471-204.797543a51.199386 51.199386 0 0 0 0-93.592477zM512.008448 768.003072a51.199386 51.199386 0 0 1-20.78695-4.403147l-460.794471-204.797543a51.199386 51.199386 0 0 1 41.599501-93.592477L512.008448 660.765959l440.00752-195.556054a51.199386 51.199386 0 0 1 41.599501 93.592477l-460.794471 204.797543A51.199386 51.199386 0 0 1 512.008448 768.003072z m0 255.996928a51.199386 51.199386 0 0 1-20.78695-4.403147l-460.794471-204.797543a51.199386 51.199386 0 0 1 41.599501-93.592476L512.008448 916.762887l440.00752-195.556053a51.199386 51.199386 0 0 1 41.599501 93.592476l-460.794471 204.797543A51.199386 51.199386 0 0 1 512.008448 1024z" fill="#54626C" p-id="6496"></path></svg>