<?xml version="1.0" standalone="no"?><!DOCTYPE svg PUBLIC "-//W3C//DTD SVG 1.1//EN" "http://www.w3.org/Graphics/SVG/1.1/DTD/svg11.dtd"><svg t="1538191848382" class="icon" style="" viewBox="0 0 1024 1024" version="1.1" xmlns="http://www.w3.org/2000/svg" p-id="743" xmlns:xlink="http://www.w3.org/1999/xlink" width="200" height="200"><defs><style type="text/css"></style></defs><path d="M128 288h32a32 32 0 1 1 0 64H128a32 32 0 0 1 0-64z m160 0h608a32 32 0 0 1 0 64H288a32 32 0 0 1 0-64z m-160 192h32a32 32 0 0 1 0 64H128a32 32 0 0 1 0-64z m160 0h608a32 32 0 0 1 0 64H288a32 32 0 0 1 0-64z m-160 192h32a32 32 0 0 1 0 64H128a32 32 0 0 1 0-64z m160 0h608a32 32 0 0 1 0 64H288a32 32 0 0 1 0-64z" fill="#636363" p-id="744"></path></svg>