<?xml version="1.0" encoding="utf-8"?>
<!-- Svg Vector Icons : http://www.sfont.cn -->
<!DOCTYPE svg PUBLIC "-//W3C//DTD SVG 1.1//EN" "http://www.w3.org/Graphics/SVG/1.1/DTD/svg11.dtd">
<svg version="1.1" xmlns="http://www.w3.org/2000/svg" xmlns:xlink="http://www.w3.org/1999/xlink" x="0px" y="0px" viewBox="0 0 1000 1000" enable-background="new 0 0 1000 1000" xml:space="preserve">
<metadata> Svg Vector Icons : http://www.sfont.cn </metadata>
<g><path d="M831.7,10H168.3C81.2,10,10,81.2,10,168.3v663.4C10,918.8,81.2,990,168.3,990h663.4c87.1,0,158.3-71.2,158.3-158.3V168.3C990,81.2,918.8,10,831.7,10z M912.8,779.4c0,73.3-60,133.3-133.3,133.3H220.6c-73.3,0-133.3-60-133.3-133.3V220.6c0-73.3,60-133.3,133.3-133.3h558.9c73.3,0,133.3,60,133.3,133.3V779.4z"/><path d="M467.7,711.9c9.2,1.5,16.5-0.7,21.9-6.6c5.3-5.8,8-13.1,8-21.9c0-10.7-4.1-18.7-12.4-24.1l-83.1-100.6h109.4c9.7-6.8,14.6-16.5,14.6-29.2c0-11.2-4.9-19-14.6-23.3H389v-52.5h126.9c2.4-1.9,4.1-3.4,5.1-4.4c6.8-7.3,10.2-14.8,10.2-22.6c0-9.2-5.1-17.7-15.3-25.5h-65.6c1-4.4,6.8-19,17.5-43.7c7.8-18.5,11.7-33.5,11.7-45.2c0-7.3-1-14.1-2.9-20.4c-1.9-1-3.4-1.5-4.4-1.5c-2.9-0.5-6.3-0.7-10.2-0.7c-7.8,0-14.7,1.9-20.8,5.8c-6.1,3.9-10.3,11.4-12.8,22.6l-26.2,83.1h-74.4c4.9-6.8,7.3-14.1,7.3-21.9c-8.3-23.3-16.5-46.7-24.8-70c-4.4-14.6-14.3-21.9-29.9-21.9c-15.6,0-23.3,7.3-23.3,21.9c0,3.9,0.2,6.8,0.7,8.7l4.4,8.7c1.9,2.4,8.3,16.5,19,42.3c7.3,18,17,28.7,29.2,32.1h-83.1c-6.3,2.4-11.7,6.9-16,13.5c-4.4,6.6-6.6,13-6.6,19.3c0,11.2,6.1,17.7,18.2,19.7h113.7v52.5H222.7c-12.2,1.9-18.2,9.5-18.2,22.6c0,6.3,1.7,12.4,5.1,18.2c3.4,5.8,7.8,9.7,13.1,11.7h113.7c-0.5,0-7.5,6.8-21.1,20.4c-32.6,32.6-50.3,50.1-53.2,52.5c-28.2,27.2-51.5,49.6-70,67.1c-3.9,6.8-5.8,13.9-5.8,21.1c0,8.3,1.9,15.1,5.8,20.4c3.9,5.4,9.5,8,16.8,8c1.5,0,4.6-0.5,9.5-1.5c9.2-8.8,16.8-15.8,22.6-21.1c33-31.1,64.9-62,95.5-92.6v175c0,6.8,2.4,11.8,7.3,14.9c4.9,3.2,11.2,4.7,19,4.7c7.3,0,13.5-1.7,18.6-5.1c5.1-3.4,7.7-8.3,7.7-14.6V624.4c2.9,2.4,18.5,21.6,46.7,57.6C445.8,695.1,456.5,705.1,467.7,711.9z"/><path d="M235.9,274.4h275.6c9.7-4.4,14.6-12.9,14.6-25.5c0-10.7-4.9-18.2-14.6-22.6H393.3v-48.1c-1.9-12.1-9.5-18.2-22.6-18.2c-6.3,0-12.4,1.7-18.2,5.1c-5.8,3.4-9.7,7.8-11.7,13.1v48.1h-105c-5.8,0-10.3,2.3-13.5,6.9c-3.2,4.6-4.7,9.8-4.7,15.7c0,6.3,1.7,12.2,5.1,17.5C226.1,271.8,230.5,274.4,235.9,274.4z"/><path d="M808.9,396.9H612.1V305c1.5-3.9,2.9-6.8,4.4-8.7c4.4-5.8,10.2-8.7,17.5-8.7c11.7-2.9,21.4-5.1,29.2-6.6c46.7-11.2,89.4-22.1,128.3-32.8c5.8-5.8,8.7-13.4,8.7-22.6c0-8.3-2.3-14.9-6.9-20c-4.6-5.1-11.1-6.9-19.3-5.5c-22.9,6.8-41.8,11.9-56.9,15.3c-42.3,10.2-83.1,18.2-122.5,24.1c-6.3,2.9-11.2,5.6-14.6,8c-10.2,7.3-17,16.3-20.4,27V585c0,24.8-7.1,49.6-21.1,74.4c-15.6,27.2-45,60.8-88.2,100.6c-3.4,5.3-5.1,11.4-5.1,18.2c0,9.7,3.2,17.2,9.5,22.6c3.4,2.9,7.8,4.4,13.1,4.4c1.9,0,4.9-0.5,8.8-1.5c40.3-27.2,73-62.3,98.1-105.4c25-43,37.5-88.1,37.5-135.2V449.4h74.4v358.7c4.4,12.1,14.1,18.2,29.2,18.2c6.3,0,11.5-1.5,15.7-4.4c4.1-2.9,6.7-7.5,7.7-13.9V449.4h70c2.4-1.9,4.1-3.4,5.1-4.4c6.8-7.3,10.2-14.8,10.2-22.6C824.2,413.2,819.1,404.7,808.9,396.9z"/></g>
</svg>